<svg width="200" height="200" viewBox="0 0 200 200" fill="none" xmlns="http://www.w3.org/2000/svg">
<rect width="200" height="200" fill="#E5E5E5"/>
<rect width="200" height="200" fill="#274A80"/>
<path d="M68.3953 70.5947L80.5626 57.0478L92.7298 70.5947L80.5626 84.1415L68.3953 70.5947Z" fill="#EEC660"/>
<path d="M24 118.832L64.6002 73.6282L74.558 84.715L33.9577 129.919L24 118.832Z" fill="#EEC660"/>
<path d="M125.442 154.773L166.042 109.569L176 120.656L135.4 165.86L125.442 154.773Z" fill="#EEC660"/>
<path d="M89.9813 123.38L135.27 72.9564L145.228 84.0432L99.939 134.467L89.9813 123.38Z" fill="#EEC660"/>
<path d="M34.0318 109.569L74.6321 154.773L64.6743 165.86L24.0741 120.656L34.0318 109.569Z" fill="#EEC660"/>
<path d="M65.1059 73.6282L105.706 118.832L95.7484 129.919L55.1482 84.715L65.1059 73.6282Z" fill="#EEC660"/>
<path d="M135.4 73.6282L176 118.832L166.042 129.919L125.442 84.715L135.4 73.6282Z" fill="#EEC660"/>
<path d="M64.5006 150.213H135.398V166H64.5006V150.213Z" fill="#EEC660"/>
<path d="M58.4668 118.832L99.067 73.6282L109.025 84.715L68.4245 129.919L58.4668 118.832Z" fill="#EEC660"/>
<path d="M100.705 72.9564L141.306 118.16L131.348 129.247L90.7477 84.0432L100.705 72.9564Z" fill="#EEC660"/>
<path d="M142.211 119.984L101.61 165.188L91.6527 154.101L132.253 108.897L142.211 119.984Z" fill="#EEC660"/>
<path d="M99.9721 165.86L59.3719 120.656L69.3296 109.569L109.93 154.773L99.9721 165.86Z" fill="#EEC660"/>
<path d="M108.246 70.3802L120.413 56.8333L132.58 70.3802L120.413 83.927L108.246 70.3802Z" fill="#EEC660"/>
<path d="M84.7637 52.1862L100.2 35L116.441 53.083L101.005 70.2692L84.7637 52.1862Z" fill="#EEC660"/>
</svg>
