<svg width="20" height="20" viewBox="0 0 20 20" fill="none" xmlns="http://www.w3.org/2000/svg">
<g clip-path="url(#clip0_4_38)">
<path d="M19.9983 9.98167V10.0008C19.9983 15.5233 15.5217 20 9.99916 20C7.70705 20.0036 5.48389 19.2163 3.705 17.7708L3.72333 17.7858C3.61804 17.7003 3.53189 17.5937 3.47044 17.4728C3.409 17.3519 3.37363 17.2194 3.36664 17.084C3.35965 16.9486 3.38118 16.8132 3.42985 16.6866C3.47852 16.56 3.55324 16.445 3.64917 16.3492L4.10333 15.895C4.27088 15.7258 4.49489 15.6243 4.73254 15.6099C4.9702 15.5954 5.20485 15.669 5.39167 15.8167L5.39 15.815C6.69953 16.8572 8.32468 17.423 9.99833 17.4192C11.2089 17.4192 12.4011 17.1229 13.4709 16.5563C14.5407 15.9897 15.4556 15.1699 16.1358 14.1684C16.8159 13.167 17.2407 12.0143 17.373 10.8109C17.5054 9.60761 17.3412 8.39017 16.8949 7.26485C16.4486 6.13953 15.7337 5.14051 14.8126 4.35496C13.8915 3.5694 12.7922 3.02118 11.6105 2.75812C10.4288 2.49505 9.20076 2.52514 8.0334 2.84576C6.86603 3.16638 5.79486 3.76778 4.91333 4.5975L4.9175 4.59417L6.96417 6.64083C7.05432 6.73109 7.11569 6.84605 7.14051 6.97118C7.16532 7.0963 7.15248 7.22598 7.1036 7.34381C7.05472 7.46164 6.972 7.56233 6.86589 7.63315C6.75979 7.70397 6.63507 7.74173 6.5075 7.74167H0.645832C0.474767 7.74167 0.310709 7.67371 0.189748 7.55275C0.0687868 7.43179 0.000831604 7.26773 0.000831604 7.09667V1.235C0.00116128 1.10761 0.0391578 0.983162 0.110041 0.877314C0.180924 0.771465 0.281528 0.688943 0.399196 0.640131C0.516863 0.591318 0.646339 0.578394 0.771333 0.602985C0.896328 0.627576 1.01126 0.688584 1.10166 0.778333L3.0925 2.76917C4.95086 0.988506 7.42624 -0.0038573 10 -2.42557e-07C15.5158 -2.42557e-07 19.9892 4.46667 19.9992 9.98V9.98083L19.9983 9.98167ZM12.7042 13.1575L13.1 12.6483C13.1782 12.5483 13.236 12.4338 13.2698 12.3114C13.3037 12.189 13.3131 12.0611 13.2975 11.9351C13.2819 11.809 13.2415 11.6873 13.1787 11.5769C13.1159 11.4665 13.032 11.3696 12.9317 11.2917L12.9292 11.29L11.2883 10.0133V5.80667C11.2883 5.2725 10.855 4.83833 10.32 4.83833H9.675C9.14083 4.83833 8.70666 5.27167 8.70666 5.80667V11.2733L11.3442 13.3242C11.5461 13.4823 11.8026 13.5538 12.0573 13.5231C12.312 13.4923 12.544 13.3617 12.7025 13.16L12.7042 13.1575Z" fill="#EEC660"/>
</g>
<defs>
<clipPath id="clip0_4_38">
<rect width="20" height="20" fill="white"/>
</clipPath>
</defs>
</svg>
