<svg width="2000" height="3791" viewBox="0 0 2000 3791" fill="none" xmlns="http://www.w3.org/2000/svg">
<rect width="2000" height="3791" fill="#E5E5E5"/>
<rect width="2000" height="3791" fill="#274A80"/>
<path d="M863.697 1906.34H942.543C943.314 1906.34 943.995 1906.22 944.588 1905.98C945.18 1905.74 945.832 1905.33 946.543 1904.74L950.01 1901.8L950.899 1902.51L939.61 1923.67H829.119L907.787 1814.6H842.097C841.326 1814.6 840.615 1814.75 839.963 1815.05C839.371 1815.28 838.719 1815.7 838.008 1816.29L834.63 1819.13L833.652 1818.42L844.941 1797.36H942.543L863.697 1906.34Z" fill="#EEC660"/>
<path d="M983.877 1863.05L991.522 1845.71H1078.55L1066.9 1867.58H1065.83L1066.01 1865.8V1865.45C1066.01 1864.74 1065.72 1864.17 1065.12 1863.76C1064.59 1863.28 1063.85 1863.05 1062.9 1863.05H983.877ZM1027.26 1814.42C1019.73 1814.42 1013.48 1815.1 1008.5 1816.47C1003.52 1817.83 999.315 1819.93 995.878 1822.78C990.426 1827.4 986.307 1832.91 983.522 1839.31C980.737 1845.65 979.344 1852.71 979.344 1860.47C979.344 1868.71 980.707 1875.97 983.433 1882.25C986.159 1888.47 990.248 1893.71 995.7 1897.98C999.552 1901 1003.82 1903.17 1008.5 1904.47C1013.24 1905.71 1019.73 1906.34 1027.97 1906.34H1082.72C1083.49 1906.34 1084.18 1906.22 1084.77 1905.98C1085.36 1905.74 1086.01 1905.33 1086.72 1904.74L1090.19 1901.8H1091.7L1079.79 1923.67H1027.97C1016 1923.67 1006.69 1922.66 1000.06 1920.65C993.478 1918.57 987.285 1915.14 981.477 1910.34C974.366 1904.53 968.973 1897.57 965.299 1889.45C961.684 1881.27 959.877 1872.17 959.877 1862.16C959.877 1854.39 960.914 1847.11 962.988 1840.29C965.121 1833.48 968.262 1827.22 972.411 1821.53C975.314 1817.56 978.633 1814.01 982.366 1810.87C986.1 1807.73 990.189 1805.03 994.633 1802.78C998.544 1800.82 1002.75 1799.43 1007.26 1798.6C1011.76 1797.77 1018.43 1797.36 1027.26 1797.36H1090.01L1078.19 1818.96H1077.3L1077.48 1817.36V1817C1077.48 1816.23 1077.18 1815.61 1076.59 1815.13C1076 1814.66 1075.26 1814.42 1074.37 1814.42H1027.26Z" fill="#EEC660"/>
<path d="M1129.75 1906.34H1174.01C1181.13 1906.34 1186.46 1904.59 1190.01 1901.09C1193.57 1897.6 1195.35 1892.32 1195.35 1885.27C1195.35 1877.15 1193.13 1871.14 1188.68 1867.22C1184.24 1863.25 1177.48 1861.27 1168.41 1861.27C1165.27 1861.27 1162.16 1861.36 1159.08 1861.54C1156 1861.71 1152.98 1861.98 1150.01 1862.34L1185.3 1834.69C1187.02 1833.21 1188.24 1831.88 1188.95 1830.69C1189.66 1829.45 1190.01 1828.08 1190.01 1826.6C1190.01 1822.87 1188.44 1819.91 1185.3 1817.71C1182.16 1815.52 1177.87 1814.42 1172.41 1814.42H1129.75V1906.34ZM1171.97 1797.36C1182.99 1797.36 1191.59 1799.52 1197.75 1803.85C1203.91 1808.17 1208.27 1815.05 1210.82 1824.47L1182.37 1845.18C1193.04 1846.36 1201.07 1850.25 1206.46 1856.82C1211.91 1863.4 1214.64 1872.59 1214.64 1884.38C1214.64 1897.06 1211.14 1906.78 1204.15 1913.54C1197.22 1920.29 1187.17 1923.67 1174.01 1923.67H1107.79V1922.43L1109.92 1920.2C1110.34 1919.79 1110.64 1919.31 1110.81 1918.78C1111.05 1918.25 1111.17 1917.63 1111.17 1916.91V1803.85C1111.17 1803.19 1111.08 1802.66 1110.9 1802.25C1110.72 1801.77 1110.4 1801.3 1109.92 1800.82L1107.79 1798.6V1797.36H1171.97Z" fill="#EEC660"/>
<path d="M1256.68 1906.34H1300.95C1308.06 1906.34 1313.4 1904.59 1316.95 1901.09C1320.51 1897.6 1322.28 1892.32 1322.28 1885.27C1322.28 1877.15 1320.06 1871.14 1315.62 1867.22C1311.17 1863.25 1304.42 1861.27 1295.35 1861.27C1292.21 1861.27 1289.1 1861.36 1286.02 1861.54C1282.94 1861.71 1279.91 1861.98 1276.95 1862.34L1312.24 1834.69C1313.96 1833.21 1315.17 1831.88 1315.88 1830.69C1316.6 1829.45 1316.95 1828.08 1316.95 1826.6C1316.95 1822.87 1315.38 1819.91 1312.24 1817.71C1309.1 1815.52 1304.8 1814.42 1299.35 1814.42H1256.68V1906.34ZM1298.91 1797.36C1309.93 1797.36 1318.52 1799.52 1324.68 1803.85C1330.85 1808.17 1335.2 1815.05 1337.75 1824.47L1309.31 1845.18C1319.97 1846.36 1328 1850.25 1333.4 1856.82C1338.85 1863.4 1341.57 1872.59 1341.57 1884.38C1341.57 1897.06 1338.08 1906.78 1331.08 1913.54C1324.15 1920.29 1314.11 1923.67 1300.95 1923.67H1234.73V1922.43L1236.86 1920.2C1237.28 1919.79 1237.57 1919.31 1237.75 1918.78C1237.99 1918.25 1238.1 1917.63 1238.1 1916.91V1803.85C1238.1 1803.19 1238.02 1802.66 1237.84 1802.25C1237.66 1801.77 1237.33 1801.3 1236.86 1800.82L1234.73 1798.6V1797.36H1298.91Z" fill="#EEC660"/>
<path d="M1425.66 1812.11C1410.55 1812.11 1398.23 1816.65 1388.69 1825.71C1379.14 1834.72 1374.37 1846.31 1374.37 1860.47C1374.37 1874.69 1379.14 1886.34 1388.69 1895.4C1398.23 1904.41 1410.55 1908.91 1425.66 1908.91C1440.78 1908.91 1453.1 1904.41 1462.64 1895.4C1472.24 1886.34 1477.04 1874.69 1477.04 1860.47C1477.04 1846.31 1472.24 1834.72 1462.64 1825.71C1453.1 1816.65 1440.78 1812.11 1425.66 1812.11ZM1425.66 1795.13C1435.21 1795.13 1444.06 1796.5 1452.24 1799.22C1460.48 1801.89 1467.53 1805.74 1473.4 1810.78C1481.04 1817.3 1486.79 1824.76 1490.64 1833.18C1494.55 1841.54 1496.51 1850.63 1496.51 1860.47C1496.51 1870.25 1494.55 1879.34 1490.64 1887.76C1486.73 1896.11 1480.98 1903.52 1473.4 1909.98C1467.47 1915.14 1460.39 1919.08 1452.15 1921.8C1443.98 1924.53 1435.15 1925.89 1425.66 1925.89C1416.24 1925.89 1407.41 1924.53 1399.17 1921.8C1391 1919.08 1383.94 1915.14 1378.02 1909.98C1370.37 1903.58 1364.6 1896.2 1360.69 1887.85C1356.83 1879.49 1354.91 1870.37 1354.91 1860.47C1354.91 1850.69 1356.86 1841.59 1360.77 1833.18C1364.69 1824.76 1370.43 1817.3 1378.02 1810.78C1383.89 1805.74 1390.91 1801.89 1399.09 1799.22C1407.32 1796.5 1416.18 1795.13 1425.66 1795.13Z" fill="#EEC660"/>
<path d="M1521.04 1916.91V1803.85C1521.04 1803.25 1520.93 1802.72 1520.69 1802.25C1520.51 1801.71 1520.18 1801.24 1519.71 1800.82L1517.58 1798.6V1797.36H1543V1798.6L1540.87 1800.82C1540.39 1801.3 1540.07 1801.77 1539.89 1802.25C1539.71 1802.66 1539.62 1803.19 1539.62 1803.85V1916.91C1539.62 1917.63 1539.71 1918.25 1539.89 1918.78C1540.13 1919.31 1540.45 1919.79 1540.87 1920.2L1543 1922.43V1923.67H1517.58V1922.43L1519.71 1920.2C1520.18 1919.79 1520.51 1919.31 1520.69 1918.78C1520.93 1918.25 1521.04 1917.63 1521.04 1916.91Z" fill="#EEC660"/>
<path d="M869.486 1996.55L870.42 2002.95L871.786 1997.18L881.386 1963.32H886.787L896.153 1997.18L897.487 2003.05L898.52 1996.52L906.054 1963.32H912.487L900.72 2011.85H894.887L884.887 1976.48L884.12 1972.78L883.353 1976.48L872.986 2011.85H867.153L855.419 1963.32H861.819L869.486 1996.55Z" fill="#EEC660"/>
<path d="M925.354 2011.85H919.187V1975.78H925.354V2011.85ZM918.687 1966.22C918.687 1965.22 918.987 1964.37 919.587 1963.68C920.209 1962.99 921.121 1962.65 922.321 1962.65C923.521 1962.65 924.432 1962.99 925.054 1963.68C925.676 1964.37 925.987 1965.22 925.987 1966.22C925.987 1967.22 925.676 1968.05 925.054 1968.72C924.432 1969.38 923.521 1969.72 922.321 1969.72C921.121 1969.72 920.209 1969.38 919.587 1968.72C918.987 1968.05 918.687 1967.22 918.687 1966.22Z" fill="#EEC660"/>
<path d="M943.621 1967.05V1975.78H950.355V1980.55H943.621V2002.92C943.621 2004.36 943.921 2005.45 944.521 2006.18C945.121 2006.89 946.143 2007.25 947.588 2007.25C948.299 2007.25 949.277 2007.12 950.521 2006.85V2011.85C948.899 2012.29 947.321 2012.52 945.788 2012.52C943.032 2012.52 940.954 2011.68 939.554 2010.02C938.154 2008.35 937.454 2005.98 937.454 2002.92V1980.55H930.887V1975.78H937.454V1967.05H943.621Z" fill="#EEC660"/>
<path d="M963.421 1975.78L963.621 1980.32C966.377 1976.85 969.977 1975.12 974.422 1975.12C982.044 1975.12 985.889 1979.42 985.955 1988.02V2011.85H979.788V1987.98C979.766 1985.38 979.166 1983.46 977.988 1982.22C976.833 1980.97 975.022 1980.35 972.555 1980.35C970.555 1980.35 968.799 1980.88 967.288 1981.95C965.777 1983.02 964.599 1984.42 963.755 1986.15V2011.85H957.588V1975.78H963.421Z" fill="#EEC660"/>
<path d="M1010.22 2012.52C1005.33 2012.52 1001.36 2010.92 998.289 2007.72C995.222 2004.49 993.689 2000.19 993.689 1994.82V1993.68C993.689 1990.1 994.367 1986.92 995.722 1984.12C997.1 1981.29 999.011 1979.09 1001.46 1977.52C1003.92 1975.92 1006.59 1975.12 1009.46 1975.12C1014.14 1975.12 1017.79 1976.66 1020.39 1979.75C1022.99 1982.84 1024.29 1987.26 1024.29 1993.02V1995.58H999.856C999.944 1999.14 1000.98 2002.02 1002.96 2004.22C1004.96 2006.39 1007.49 2007.48 1010.56 2007.48C1012.73 2007.48 1014.58 2007.04 1016.09 2006.15C1017.6 2005.26 1018.92 2004.08 1020.06 2002.62L1023.82 2005.55C1020.8 2010.19 1016.27 2012.52 1010.22 2012.52ZM1009.46 1980.18C1006.97 1980.18 1004.88 1981.09 1003.19 1982.92C1001.5 1984.72 1000.46 1987.25 1000.06 1990.52H1018.12V1990.05C1017.94 1986.92 1017.1 1984.49 1015.59 1982.78C1014.08 1981.05 1012.03 1980.18 1009.46 1980.18Z" fill="#EEC660"/>
<path d="M1052.46 2002.28C1052.46 2000.62 1051.82 1999.33 1050.56 1998.42C1049.31 1997.48 1047.12 1996.68 1043.99 1996.02C1040.88 1995.35 1038.4 1994.55 1036.56 1993.62C1034.73 1992.68 1033.38 1991.57 1032.49 1990.28C1031.62 1988.99 1031.19 1987.46 1031.19 1985.68C1031.19 1982.73 1032.43 1980.23 1034.92 1978.18C1037.43 1976.14 1040.63 1975.12 1044.52 1975.12C1048.61 1975.12 1051.92 1976.17 1054.46 1978.28C1057.01 1980.39 1058.29 1983.09 1058.29 1986.38H1052.09C1052.09 1984.69 1051.37 1983.24 1049.92 1982.02C1048.5 1980.79 1046.7 1980.18 1044.52 1980.18C1042.28 1980.18 1040.52 1980.67 1039.26 1981.65C1037.99 1982.63 1037.36 1983.9 1037.36 1985.48C1037.36 1986.97 1037.95 1988.09 1039.12 1988.85C1040.3 1989.6 1042.42 1990.33 1045.49 1991.02C1048.58 1991.7 1051.08 1992.53 1052.99 1993.48C1054.9 1994.44 1056.31 1995.59 1057.22 1996.95C1058.16 1998.28 1058.62 1999.92 1058.62 2001.85C1058.62 2005.07 1057.33 2007.66 1054.76 2009.62C1052.18 2011.55 1048.83 2012.52 1044.72 2012.52C1041.83 2012.52 1039.28 2012.01 1037.06 2010.98C1034.83 2009.96 1033.09 2008.54 1031.82 2006.72C1030.58 2004.87 1029.96 2002.88 1029.96 2000.75H1036.12C1036.23 2002.82 1037.06 2004.46 1038.59 2005.68C1040.15 2006.88 1042.19 2007.48 1044.72 2007.48C1047.06 2007.48 1048.92 2007.02 1050.32 2006.08C1051.75 2005.13 1052.46 2003.86 1052.46 2002.28Z" fill="#EEC660"/>
<path d="M1087.66 2002.28C1087.66 2000.62 1087.02 1999.33 1085.76 1998.42C1084.51 1997.48 1082.32 1996.68 1079.19 1996.02C1076.08 1995.35 1073.6 1994.55 1071.76 1993.62C1069.93 1992.68 1068.58 1991.57 1067.69 1990.28C1066.82 1988.99 1066.39 1987.46 1066.39 1985.68C1066.39 1982.73 1067.63 1980.23 1070.12 1978.18C1072.63 1976.14 1075.83 1975.12 1079.72 1975.12C1083.81 1975.12 1087.12 1976.17 1089.66 1978.28C1092.21 1980.39 1093.49 1983.09 1093.49 1986.38H1087.29C1087.29 1984.69 1086.57 1983.24 1085.12 1982.02C1083.7 1980.79 1081.9 1980.18 1079.72 1980.18C1077.48 1980.18 1075.72 1980.67 1074.46 1981.65C1073.19 1982.63 1072.56 1983.9 1072.56 1985.48C1072.56 1986.97 1073.15 1988.09 1074.32 1988.85C1075.5 1989.6 1077.62 1990.33 1080.69 1991.02C1083.78 1991.7 1086.28 1992.53 1088.19 1993.48C1090.1 1994.44 1091.51 1995.59 1092.42 1996.95C1093.36 1998.28 1093.82 1999.92 1093.82 2001.85C1093.82 2005.07 1092.54 2007.66 1089.96 2009.62C1087.38 2011.55 1084.04 2012.52 1079.92 2012.52C1077.03 2012.52 1074.48 2012.01 1072.26 2010.98C1070.03 2009.96 1068.29 2008.54 1067.02 2006.72C1065.78 2004.87 1065.16 2002.88 1065.16 2000.75H1071.32C1071.43 2002.82 1072.26 2004.46 1073.79 2005.68C1075.35 2006.88 1077.39 2007.48 1079.92 2007.48C1082.26 2007.48 1084.12 2007.02 1085.52 2006.08C1086.95 2005.13 1087.66 2003.86 1087.66 2002.28Z" fill="#EEC660"/>
<path d="M1151.96 1968.58H1136.36V2011.85H1129.99V1968.58H1114.42V1963.32H1151.96V1968.58Z" fill="#EEC660"/>
<path d="M1164.36 1980.15C1167.09 1976.79 1170.65 1975.12 1175.03 1975.12C1182.65 1975.12 1186.49 1979.42 1186.56 1988.02V2011.85H1180.39V1987.98C1180.37 1985.38 1179.77 1983.46 1178.59 1982.22C1177.44 1980.97 1175.63 1980.35 1173.16 1980.35C1171.16 1980.35 1169.4 1980.88 1167.89 1981.95C1166.38 1983.02 1165.2 1984.42 1164.36 1986.15V2011.85H1158.19V1960.65H1164.36V1980.15Z" fill="#EEC660"/>
<path d="M1210.76 2012.52C1205.87 2012.52 1201.89 2010.92 1198.83 2007.72C1195.76 2004.49 1194.23 2000.19 1194.23 1994.82V1993.68C1194.23 1990.1 1194.9 1986.92 1196.26 1984.12C1197.64 1981.29 1199.55 1979.09 1201.99 1977.52C1204.46 1975.92 1207.13 1975.12 1209.99 1975.12C1214.68 1975.12 1218.33 1976.66 1220.93 1979.75C1223.53 1982.84 1224.83 1987.26 1224.83 1993.02V1995.58H1200.39C1200.48 1999.14 1201.52 2002.02 1203.49 2004.22C1205.49 2006.39 1208.03 2007.48 1211.09 2007.48C1213.27 2007.48 1215.12 2007.04 1216.63 2006.15C1218.14 2005.26 1219.46 2004.08 1220.59 2002.62L1224.36 2005.55C1221.34 2010.19 1216.8 2012.52 1210.76 2012.52ZM1209.99 1980.18C1207.5 1980.18 1205.42 1981.09 1203.73 1982.92C1202.04 1984.72 1200.99 1987.25 1200.59 1990.52H1218.66V1990.05C1218.48 1986.92 1217.64 1984.49 1216.13 1982.78C1214.62 1981.05 1212.57 1980.18 1209.99 1980.18Z" fill="#EEC660"/>
<path d="M1285.73 2005.48C1284.08 2007.84 1281.78 2009.61 1278.83 2010.78C1275.89 2011.94 1272.47 2012.52 1268.56 2012.52C1264.61 2012.52 1261.09 2011.59 1258.03 2009.75C1254.96 2007.88 1252.58 2005.24 1250.89 2001.82C1249.23 1998.39 1248.37 1994.43 1248.33 1989.92V1985.68C1248.33 1978.37 1250.03 1972.7 1253.43 1968.68C1256.85 1964.66 1261.65 1962.65 1267.83 1962.65C1272.89 1962.65 1276.97 1963.95 1280.06 1966.55C1283.15 1969.13 1285.04 1972.79 1285.73 1977.55H1279.33C1278.13 1971.13 1274.31 1967.92 1267.86 1967.92C1263.57 1967.92 1260.32 1969.43 1258.09 1972.45C1255.89 1975.45 1254.78 1979.8 1254.76 1985.52V1989.48C1254.76 1994.93 1256.01 1999.26 1258.49 2002.48C1260.98 2005.68 1264.35 2007.28 1268.59 2007.28C1270.99 2007.28 1273.09 2007.02 1274.89 2006.48C1276.69 2005.95 1278.18 2005.05 1279.36 2003.78V1992.88H1268.13V1987.68H1285.73V2005.48Z" fill="#EEC660"/>
<path d="M1312.9 1981.32C1311.96 1981.16 1310.95 1981.08 1309.86 1981.08C1305.82 1981.08 1303.07 1982.8 1301.63 1986.25V2011.85H1295.46V1975.78H1301.46L1301.56 1979.95C1303.58 1976.73 1306.45 1975.12 1310.16 1975.12C1311.36 1975.12 1312.27 1975.27 1312.9 1975.58V1981.32Z" fill="#EEC660"/>
<path d="M1339.53 2011.85C1339.17 2011.14 1338.88 2009.87 1338.66 2008.05C1335.8 2011.03 1332.37 2012.52 1328.4 2012.52C1324.84 2012.52 1321.92 2011.52 1319.63 2009.52C1317.36 2007.49 1316.23 2004.94 1316.23 2001.85C1316.23 1998.09 1317.65 1995.18 1320.5 1993.12C1323.36 1991.03 1327.38 1989.98 1332.56 1989.98H1338.56V1987.15C1338.56 1984.99 1337.92 1983.28 1336.63 1982.02C1335.34 1980.73 1333.44 1980.08 1330.93 1980.08C1328.73 1980.08 1326.88 1980.64 1325.4 1981.75C1323.91 1982.86 1323.16 1984.2 1323.16 1985.78H1316.96C1316.96 1983.98 1317.6 1982.25 1318.86 1980.58C1320.15 1978.89 1321.88 1977.56 1324.06 1976.58C1326.26 1975.6 1328.67 1975.12 1331.3 1975.12C1335.45 1975.12 1338.71 1976.16 1341.06 1978.25C1343.42 1980.32 1344.64 1983.17 1344.73 1986.82V2003.42C1344.73 2006.73 1345.15 2009.36 1346 2011.32V2011.85H1339.53ZM1329.3 2007.15C1331.23 2007.15 1333.06 2006.65 1334.8 2005.65C1336.53 2004.65 1337.78 2003.35 1338.56 2001.75V1994.35H1333.73C1326.17 1994.35 1322.4 1996.56 1322.4 2000.98C1322.4 2002.92 1323.04 2004.43 1324.33 2005.52C1325.62 2006.61 1327.27 2007.15 1329.3 2007.15Z" fill="#EEC660"/>
<path d="M1360.23 1975.78L1360.43 1980.32C1363.19 1976.85 1366.79 1975.12 1371.23 1975.12C1378.85 1975.12 1382.7 1979.42 1382.76 1988.02V2011.85H1376.6V1987.98C1376.57 1985.38 1375.97 1983.46 1374.8 1982.22C1373.64 1980.97 1371.83 1980.35 1369.36 1980.35C1367.36 1980.35 1365.61 1980.88 1364.1 1981.95C1362.59 1983.02 1361.41 1984.42 1360.56 1986.15V2011.85H1354.4V1975.78H1360.23Z" fill="#EEC660"/>
<path d="M1390.56 1993.52C1390.56 1987.98 1391.87 1983.54 1394.5 1980.18C1397.12 1976.8 1400.55 1975.12 1404.8 1975.12C1409.02 1975.12 1412.36 1976.56 1414.83 1979.45V1960.65H1421V2011.85H1415.33L1415.03 2007.98C1412.56 2011.01 1409.13 2012.52 1404.73 2012.52C1400.55 2012.52 1397.14 2010.81 1394.5 2007.38C1391.87 2003.96 1390.56 1999.49 1390.56 1993.98V1993.52ZM1396.73 1994.22C1396.73 1998.31 1397.57 2001.51 1399.26 2003.82C1400.95 2006.13 1403.29 2007.28 1406.26 2007.28C1410.18 2007.28 1413.03 2005.53 1414.83 2002.02V1985.45C1412.99 1982.05 1410.15 1980.35 1406.33 1980.35C1403.31 1980.35 1400.95 1981.52 1399.26 1983.85C1397.57 1986.18 1396.73 1989.64 1396.73 1994.22Z" fill="#EEC660"/>
<path d="M1445.56 2012.52C1440.68 2012.52 1436.7 2010.92 1433.63 2007.72C1430.56 2004.49 1429.03 2000.19 1429.03 1994.82V1993.68C1429.03 1990.1 1429.71 1986.92 1431.06 1984.12C1432.44 1981.29 1434.35 1979.09 1436.8 1977.52C1439.26 1975.92 1441.93 1975.12 1444.8 1975.12C1449.49 1975.12 1453.13 1976.66 1455.73 1979.75C1458.33 1982.84 1459.63 1987.26 1459.63 1993.02V1995.58H1435.2C1435.29 1999.14 1436.32 2002.02 1438.3 2004.22C1440.3 2006.39 1442.83 2007.48 1445.9 2007.48C1448.08 2007.48 1449.92 2007.04 1451.43 2006.15C1452.94 2005.26 1454.26 2004.08 1455.4 2002.62L1459.16 2005.55C1456.14 2010.19 1451.61 2012.52 1445.56 2012.52ZM1444.8 1980.18C1442.31 1980.18 1440.22 1981.09 1438.53 1982.92C1436.84 1984.72 1435.8 1987.25 1435.4 1990.52H1453.46V1990.05C1453.29 1986.92 1452.44 1984.49 1450.93 1982.78C1449.42 1981.05 1447.38 1980.18 1444.8 1980.18Z" fill="#EEC660"/>
<path d="M1489.07 2008.28C1486.67 2011.11 1483.14 2012.52 1478.5 2012.52C1474.65 2012.52 1471.72 2011.41 1469.7 2009.18C1467.7 2006.94 1466.69 2003.63 1466.67 1999.25V1975.78H1472.83V1999.08C1472.83 2004.55 1475.05 2007.28 1479.5 2007.28C1484.21 2007.28 1487.34 2005.53 1488.9 2002.02V1975.78H1495.07V2011.85H1489.2L1489.07 2008.28Z" fill="#EEC660"/>
<path d="M1521.9 1981.32C1520.97 1981.16 1519.96 1981.08 1518.87 1981.08C1514.82 1981.08 1512.08 1982.8 1510.63 1986.25V2011.85H1504.47V1975.78H1510.47L1510.57 1979.95C1512.59 1976.73 1515.45 1975.12 1519.17 1975.12C1520.37 1975.12 1521.28 1975.27 1521.9 1975.58V1981.32Z" fill="#EEC660"/>
<path d="M551.05 1830.29L576.552 1800.87L602.054 1830.29L576.552 1859.7L551.05 1830.29Z" fill="#EEC660"/>
<path d="M458 1935.03L543.096 1836.88L563.967 1860.95L478.871 1959.1L458 1935.03Z" fill="#EEC660"/>
<path d="M670.617 2013.07L755.713 1914.92L776.584 1938.99L691.488 2037.15L670.617 2013.07Z" fill="#EEC660"/>
<path d="M596.293 1944.91L691.216 1835.42L712.087 1859.49L617.164 1968.98L596.293 1944.91Z" fill="#EEC660"/>
<path d="M479.026 1914.92L564.122 2013.07L543.251 2037.15L458.155 1938.99L479.026 1914.92Z" fill="#EEC660"/>
<path d="M544.156 1836.88L629.252 1935.03L608.381 1959.1L523.285 1860.95L544.156 1836.88Z" fill="#EEC660"/>
<path d="M691.488 1836.88L776.584 1935.03L755.713 1959.1L670.617 1860.95L691.488 1836.88Z" fill="#EEC660"/>
<path d="M542.887 2003.17H691.484V2037.45H542.887V2003.17Z" fill="#EEC660"/>
<path d="M530.241 1935.03L615.337 1836.88L636.208 1860.95L551.112 1959.1L530.241 1935.03Z" fill="#EEC660"/>
<path d="M618.771 1835.42L703.867 1933.57L682.996 1957.65L597.9 1859.49L618.771 1835.42Z" fill="#EEC660"/>
<path d="M705.764 1937.53L620.668 2035.69L599.797 2011.61L684.893 1913.46L705.764 1937.53Z" fill="#EEC660"/>
<path d="M617.234 2037.15L532.138 1938.99L553.009 1914.92L638.105 2013.07L617.234 2037.15Z" fill="#EEC660"/>
<path d="M634.575 1829.82L660.077 1800.41L685.579 1829.82L660.077 1859.24L634.575 1829.82Z" fill="#EEC660"/>
<path d="M585.358 1790.32L617.711 1753L651.752 1792.26L619.399 1829.58L585.358 1790.32Z" fill="#EEC660"/>
</svg>
