<svg width="451" height="250" viewBox="0 0 451 250" fill="none" xmlns="http://www.w3.org/2000/svg">
<rect width="451" height="250" fill="white"/>
<rect width="451" height="250" fill="#274A80"/>
<path d="M183.625 128.906H211.344C211.615 128.906 211.854 128.865 212.062 128.781C212.271 128.698 212.5 128.552 212.75 128.344L213.969 127.312L214.281 127.562L210.312 135H171.469L199.125 96.6562H176.031C175.76 96.6562 175.51 96.7083 175.281 96.8125C175.073 96.8958 174.844 97.0417 174.594 97.25L173.406 98.25L173.062 98L177.031 90.5938H211.344L183.625 128.906ZM225.875 113.688L228.562 107.594H259.156L255.062 115.281H254.688L254.75 114.656V114.531C254.75 114.281 254.646 114.083 254.438 113.938C254.25 113.771 253.99 113.688 253.656 113.688H225.875ZM241.125 96.5938C238.479 96.5938 236.281 96.8333 234.531 97.3125C232.781 97.7917 231.302 98.5312 230.094 99.5312C228.177 101.156 226.729 103.094 225.75 105.344C224.771 107.573 224.281 110.052 224.281 112.781C224.281 115.677 224.76 118.229 225.719 120.438C226.677 122.625 228.115 124.469 230.031 125.969C231.385 127.031 232.885 127.792 234.531 128.25C236.198 128.688 238.479 128.906 241.375 128.906H260.625C260.896 128.906 261.135 128.865 261.344 128.781C261.552 128.698 261.781 128.552 262.031 128.344L263.25 127.312H263.781L259.594 135H241.375C237.167 135 233.896 134.646 231.562 133.938C229.25 133.208 227.073 132 225.031 130.312C222.531 128.271 220.635 125.823 219.344 122.969C218.073 120.094 217.438 116.896 217.438 113.375C217.438 110.646 217.802 108.083 218.531 105.688C219.281 103.292 220.385 101.094 221.844 99.0938C222.865 97.6979 224.031 96.4479 225.344 95.3438C226.656 94.2396 228.094 93.2917 229.656 92.5C231.031 91.8125 232.51 91.3229 234.094 91.0312C235.677 90.7396 238.021 90.5938 241.125 90.5938H263.188L259.031 98.1875H258.719L258.781 97.625V97.5C258.781 97.2292 258.677 97.0104 258.469 96.8438C258.26 96.6771 258 96.5938 257.688 96.5938H241.125ZM277.156 128.906H292.719C295.219 128.906 297.094 128.292 298.344 127.062C299.594 125.833 300.219 123.979 300.219 121.5C300.219 118.646 299.438 116.531 297.875 115.156C296.312 113.76 293.938 113.062 290.75 113.062C289.646 113.062 288.552 113.094 287.469 113.156C286.385 113.219 285.323 113.312 284.281 113.438L296.688 103.719C297.292 103.198 297.719 102.729 297.969 102.312C298.219 101.875 298.344 101.396 298.344 100.875C298.344 99.5625 297.792 98.5208 296.688 97.75C295.583 96.9792 294.073 96.5938 292.156 96.5938H277.156V128.906ZM292 90.5938C295.875 90.5938 298.896 91.3542 301.062 92.875C303.229 94.3958 304.76 96.8125 305.656 100.125L295.656 107.406C299.406 107.823 302.229 109.188 304.125 111.5C306.042 113.812 307 117.042 307 121.188C307 125.646 305.771 129.062 303.312 131.438C300.875 133.812 297.344 135 292.719 135H269.438V134.562L270.188 133.781C270.333 133.635 270.438 133.469 270.5 133.281C270.583 133.094 270.625 132.875 270.625 132.625V92.875C270.625 92.6458 270.594 92.4583 270.531 92.3125C270.469 92.1458 270.354 91.9792 270.188 91.8125L269.438 91.0312V90.5938H292ZM321.781 128.906H337.344C339.844 128.906 341.719 128.292 342.969 127.062C344.219 125.833 344.844 123.979 344.844 121.5C344.844 118.646 344.062 116.531 342.5 115.156C340.938 113.76 338.562 113.062 335.375 113.062C334.271 113.062 333.177 113.094 332.094 113.156C331.01 113.219 329.948 113.312 328.906 113.438L341.312 103.719C341.917 103.198 342.344 102.729 342.594 102.312C342.844 101.875 342.969 101.396 342.969 100.875C342.969 99.5625 342.417 98.5208 341.312 97.75C340.208 96.9792 338.698 96.5938 336.781 96.5938H321.781V128.906ZM336.625 90.5938C340.5 90.5938 343.521 91.3542 345.688 92.875C347.854 94.3958 349.385 96.8125 350.281 100.125L340.281 107.406C344.031 107.823 346.854 109.188 348.75 111.5C350.667 113.812 351.625 117.042 351.625 121.188C351.625 125.646 350.396 129.062 347.938 131.438C345.5 133.812 341.969 135 337.344 135H314.062V134.562L314.812 133.781C314.958 133.635 315.062 133.469 315.125 133.281C315.208 133.094 315.25 132.875 315.25 132.625V92.875C315.25 92.6458 315.219 92.4583 315.156 92.3125C315.094 92.1458 314.979 91.9792 314.812 91.8125L314.062 91.0312V90.5938H336.625ZM381.188 95.7812C375.875 95.7812 371.542 97.375 368.188 100.562C364.833 103.729 363.156 107.802 363.156 112.781C363.156 117.781 364.833 121.875 368.188 125.062C371.542 128.229 375.875 129.812 381.188 129.812C386.5 129.812 390.833 128.229 394.188 125.062C397.562 121.875 399.25 117.781 399.25 112.781C399.25 107.802 397.562 103.729 394.188 100.562C390.833 97.375 386.5 95.7812 381.188 95.7812ZM381.188 89.8125C384.542 89.8125 387.656 90.2917 390.531 91.25C393.427 92.1875 395.906 93.5417 397.969 95.3125C400.656 97.6042 402.677 100.229 404.031 103.188C405.406 106.125 406.094 109.323 406.094 112.781C406.094 116.219 405.406 119.417 404.031 122.375C402.656 125.312 400.635 127.917 397.969 130.188C395.885 132 393.396 133.385 390.5 134.344C387.625 135.302 384.521 135.781 381.188 135.781C377.875 135.781 374.771 135.302 371.875 134.344C369 133.385 366.521 132 364.438 130.188C361.75 127.938 359.719 125.344 358.344 122.406C356.99 119.469 356.312 116.26 356.312 112.781C356.312 109.344 357 106.146 358.375 103.188C359.75 100.229 361.771 97.6042 364.438 95.3125C366.5 93.5417 368.969 92.1875 371.844 91.25C374.74 90.2917 377.854 89.8125 381.188 89.8125ZM414.719 132.625V92.875C414.719 92.6667 414.677 92.4792 414.594 92.3125C414.531 92.125 414.417 91.9583 414.25 91.8125L413.5 91.0312V90.5938H422.438V91.0312L421.688 91.8125C421.521 91.9792 421.406 92.1458 421.344 92.3125C421.281 92.4583 421.25 92.6458 421.25 92.875V132.625C421.25 132.875 421.281 133.094 421.344 133.281C421.427 133.469 421.542 133.635 421.688 133.781L422.438 134.562V135H413.5V134.562L414.25 133.781C414.417 133.635 414.531 133.469 414.594 133.281C414.677 133.094 414.719 132.875 414.719 132.625Z" fill="#EEC660"/>
<path d="M185.66 160.621L185.988 162.871L186.469 160.844L189.844 148.938H191.742L195.035 160.844L195.504 162.906L195.867 160.609L198.516 148.938H200.777L196.641 166H194.59L191.074 153.566L190.805 152.266L190.535 153.566L186.891 166H184.84L180.715 148.938H182.965L185.66 160.621ZM205.301 166H203.133V153.32H205.301V166ZM202.957 149.957C202.957 149.605 203.062 149.309 203.273 149.066C203.492 148.824 203.812 148.703 204.234 148.703C204.656 148.703 204.977 148.824 205.195 149.066C205.414 149.309 205.523 149.605 205.523 149.957C205.523 150.309 205.414 150.602 205.195 150.836C204.977 151.07 204.656 151.188 204.234 151.188C203.812 151.188 203.492 151.07 203.273 150.836C203.062 150.602 202.957 150.309 202.957 149.957ZM211.723 150.25V153.32H214.09V154.996H211.723V162.859C211.723 163.367 211.828 163.75 212.039 164.008C212.25 164.258 212.609 164.383 213.117 164.383C213.367 164.383 213.711 164.336 214.148 164.242V166C213.578 166.156 213.023 166.234 212.484 166.234C211.516 166.234 210.785 165.941 210.293 165.355C209.801 164.77 209.555 163.938 209.555 162.859V154.996H207.246V153.32H209.555V150.25H211.723ZM218.684 153.32L218.754 154.914C219.723 153.695 220.988 153.086 222.551 153.086C225.23 153.086 226.582 154.598 226.605 157.621V166H224.438V157.609C224.43 156.695 224.219 156.02 223.805 155.582C223.398 155.145 222.762 154.926 221.895 154.926C221.191 154.926 220.574 155.113 220.043 155.488C219.512 155.863 219.098 156.355 218.801 156.965V166H216.633V153.32H218.684ZM235.137 166.234C233.418 166.234 232.02 165.672 230.941 164.547C229.863 163.414 229.324 161.902 229.324 160.012V159.613C229.324 158.355 229.562 157.234 230.039 156.25C230.523 155.258 231.195 154.484 232.055 153.93C232.922 153.367 233.859 153.086 234.867 153.086C236.516 153.086 237.797 153.629 238.711 154.715C239.625 155.801 240.082 157.355 240.082 159.379V160.281H231.492C231.523 161.531 231.887 162.543 232.582 163.316C233.285 164.082 234.176 164.465 235.254 164.465C236.02 164.465 236.668 164.309 237.199 163.996C237.73 163.684 238.195 163.27 238.594 162.754L239.918 163.785C238.855 165.418 237.262 166.234 235.137 166.234ZM234.867 154.867C233.992 154.867 233.258 155.188 232.664 155.828C232.07 156.461 231.703 157.352 231.562 158.5H237.914V158.336C237.852 157.234 237.555 156.383 237.023 155.781C236.492 155.172 235.773 154.867 234.867 154.867ZM249.984 162.637C249.984 162.051 249.762 161.598 249.316 161.277C248.879 160.949 248.109 160.668 247.008 160.434C245.914 160.199 245.043 159.918 244.395 159.59C243.754 159.262 243.277 158.871 242.965 158.418C242.66 157.965 242.508 157.426 242.508 156.801C242.508 155.762 242.945 154.883 243.82 154.164C244.703 153.445 245.828 153.086 247.195 153.086C248.633 153.086 249.797 153.457 250.688 154.199C251.586 154.941 252.035 155.891 252.035 157.047H249.855C249.855 156.453 249.602 155.941 249.094 155.512C248.594 155.082 247.961 154.867 247.195 154.867C246.406 154.867 245.789 155.039 245.344 155.383C244.898 155.727 244.676 156.176 244.676 156.73C244.676 157.254 244.883 157.648 245.297 157.914C245.711 158.18 246.457 158.434 247.535 158.676C248.621 158.918 249.5 159.207 250.172 159.543C250.844 159.879 251.34 160.285 251.66 160.762C251.988 161.23 252.152 161.805 252.152 162.484C252.152 163.617 251.699 164.527 250.793 165.215C249.887 165.895 248.711 166.234 247.266 166.234C246.25 166.234 245.352 166.055 244.57 165.695C243.789 165.336 243.176 164.836 242.73 164.195C242.293 163.547 242.074 162.848 242.074 162.098H244.242C244.281 162.824 244.57 163.402 245.109 163.832C245.656 164.254 246.375 164.465 247.266 164.465C248.086 164.465 248.742 164.301 249.234 163.973C249.734 163.637 249.984 163.191 249.984 162.637ZM262.359 162.637C262.359 162.051 262.137 161.598 261.691 161.277C261.254 160.949 260.484 160.668 259.383 160.434C258.289 160.199 257.418 159.918 256.77 159.59C256.129 159.262 255.652 158.871 255.34 158.418C255.035 157.965 254.883 157.426 254.883 156.801C254.883 155.762 255.32 154.883 256.195 154.164C257.078 153.445 258.203 153.086 259.57 153.086C261.008 153.086 262.172 153.457 263.062 154.199C263.961 154.941 264.41 155.891 264.41 157.047H262.23C262.23 156.453 261.977 155.941 261.469 155.512C260.969 155.082 260.336 154.867 259.57 154.867C258.781 154.867 258.164 155.039 257.719 155.383C257.273 155.727 257.051 156.176 257.051 156.73C257.051 157.254 257.258 157.648 257.672 157.914C258.086 158.18 258.832 158.434 259.91 158.676C260.996 158.918 261.875 159.207 262.547 159.543C263.219 159.879 263.715 160.285 264.035 160.762C264.363 161.23 264.527 161.805 264.527 162.484C264.527 163.617 264.074 164.527 263.168 165.215C262.262 165.895 261.086 166.234 259.641 166.234C258.625 166.234 257.727 166.055 256.945 165.695C256.164 165.336 255.551 164.836 255.105 164.195C254.668 163.547 254.449 162.848 254.449 162.098H256.617C256.656 162.824 256.945 163.402 257.484 163.832C258.031 164.254 258.75 164.465 259.641 164.465C260.461 164.465 261.117 164.301 261.609 163.973C262.109 163.637 262.359 163.191 262.359 162.637ZM284.965 150.789H279.48V166H277.242V150.789H271.77V148.938H284.965V150.789ZM289.324 154.855C290.285 153.676 291.535 153.086 293.074 153.086C295.754 153.086 297.105 154.598 297.129 157.621V166H294.961V157.609C294.953 156.695 294.742 156.02 294.328 155.582C293.922 155.145 293.285 154.926 292.418 154.926C291.715 154.926 291.098 155.113 290.566 155.488C290.035 155.863 289.621 156.355 289.324 156.965V166H287.156V148H289.324V154.855ZM305.637 166.234C303.918 166.234 302.52 165.672 301.441 164.547C300.363 163.414 299.824 161.902 299.824 160.012V159.613C299.824 158.355 300.062 157.234 300.539 156.25C301.023 155.258 301.695 154.484 302.555 153.93C303.422 153.367 304.359 153.086 305.367 153.086C307.016 153.086 308.297 153.629 309.211 154.715C310.125 155.801 310.582 157.355 310.582 159.379V160.281H301.992C302.023 161.531 302.387 162.543 303.082 163.316C303.785 164.082 304.676 164.465 305.754 164.465C306.52 164.465 307.168 164.309 307.699 163.996C308.23 163.684 308.695 163.27 309.094 162.754L310.418 163.785C309.355 165.418 307.762 166.234 305.637 166.234ZM305.367 154.867C304.492 154.867 303.758 155.188 303.164 155.828C302.57 156.461 302.203 157.352 302.062 158.5H308.414V158.336C308.352 157.234 308.055 156.383 307.523 155.781C306.992 155.172 306.273 154.867 305.367 154.867ZM331.992 163.762C331.414 164.59 330.605 165.211 329.566 165.625C328.535 166.031 327.332 166.234 325.957 166.234C324.566 166.234 323.332 165.91 322.254 165.262C321.176 164.605 320.34 163.676 319.746 162.473C319.16 161.27 318.859 159.875 318.844 158.289V156.801C318.844 154.23 319.441 152.238 320.637 150.824C321.84 149.41 323.527 148.703 325.699 148.703C327.48 148.703 328.914 149.16 330 150.074C331.086 150.98 331.75 152.27 331.992 153.941H329.742C329.32 151.684 327.977 150.555 325.711 150.555C324.203 150.555 323.059 151.086 322.277 152.148C321.504 153.203 321.113 154.734 321.105 156.742V158.137C321.105 160.051 321.543 161.574 322.418 162.707C323.293 163.832 324.477 164.395 325.969 164.395C326.812 164.395 327.551 164.301 328.184 164.113C328.816 163.926 329.34 163.609 329.754 163.164V159.332H325.805V157.504H331.992V163.762ZM341.543 155.266C341.215 155.211 340.859 155.184 340.477 155.184C339.055 155.184 338.09 155.789 337.582 157V166H335.414V153.32H337.523L337.559 154.785C338.27 153.652 339.277 153.086 340.582 153.086C341.004 153.086 341.324 153.141 341.543 153.25V155.266ZM350.906 166C350.781 165.75 350.68 165.305 350.602 164.664C349.594 165.711 348.391 166.234 346.992 166.234C345.742 166.234 344.715 165.883 343.91 165.18C343.113 164.469 342.715 163.57 342.715 162.484C342.715 161.164 343.215 160.141 344.215 159.414C345.223 158.68 346.637 158.312 348.457 158.312H350.566V157.316C350.566 156.559 350.34 155.957 349.887 155.512C349.434 155.059 348.766 154.832 347.883 154.832C347.109 154.832 346.461 155.027 345.938 155.418C345.414 155.809 345.152 156.281 345.152 156.836H342.973C342.973 156.203 343.195 155.594 343.641 155.008C344.094 154.414 344.703 153.945 345.469 153.602C346.242 153.258 347.09 153.086 348.012 153.086C349.473 153.086 350.617 153.453 351.445 154.188C352.273 154.914 352.703 155.918 352.734 157.199V163.035C352.734 164.199 352.883 165.125 353.18 165.812V166H350.906ZM347.309 164.348C347.988 164.348 348.633 164.172 349.242 163.82C349.852 163.469 350.293 163.012 350.566 162.449V159.848H348.867C346.211 159.848 344.883 160.625 344.883 162.18C344.883 162.859 345.109 163.391 345.562 163.773C346.016 164.156 346.598 164.348 347.309 164.348ZM358.184 153.32L358.254 154.914C359.223 153.695 360.488 153.086 362.051 153.086C364.73 153.086 366.082 154.598 366.105 157.621V166H363.938V157.609C363.93 156.695 363.719 156.02 363.305 155.582C362.898 155.145 362.262 154.926 361.395 154.926C360.691 154.926 360.074 155.113 359.543 155.488C359.012 155.863 358.598 156.355 358.301 156.965V166H356.133V153.32H358.184ZM368.848 159.555C368.848 157.609 369.309 156.047 370.23 154.867C371.152 153.68 372.359 153.086 373.852 153.086C375.336 153.086 376.512 153.594 377.379 154.609V148H379.547V166H377.555L377.449 164.641C376.582 165.703 375.375 166.234 373.828 166.234C372.359 166.234 371.16 165.633 370.23 164.43C369.309 163.227 368.848 161.656 368.848 159.719V159.555ZM371.016 159.801C371.016 161.238 371.312 162.363 371.906 163.176C372.5 163.988 373.32 164.395 374.367 164.395C375.742 164.395 376.746 163.777 377.379 162.543V156.719C376.73 155.523 375.734 154.926 374.391 154.926C373.328 154.926 372.5 155.336 371.906 156.156C371.312 156.977 371.016 158.191 371.016 159.801ZM388.184 166.234C386.465 166.234 385.066 165.672 383.988 164.547C382.91 163.414 382.371 161.902 382.371 160.012V159.613C382.371 158.355 382.609 157.234 383.086 156.25C383.57 155.258 384.242 154.484 385.102 153.93C385.969 153.367 386.906 153.086 387.914 153.086C389.562 153.086 390.844 153.629 391.758 154.715C392.672 155.801 393.129 157.355 393.129 159.379V160.281H384.539C384.57 161.531 384.934 162.543 385.629 163.316C386.332 164.082 387.223 164.465 388.301 164.465C389.066 164.465 389.715 164.309 390.246 163.996C390.777 163.684 391.242 163.27 391.641 162.754L392.965 163.785C391.902 165.418 390.309 166.234 388.184 166.234ZM387.914 154.867C387.039 154.867 386.305 155.188 385.711 155.828C385.117 156.461 384.75 157.352 384.609 158.5H390.961V158.336C390.898 157.234 390.602 156.383 390.07 155.781C389.539 155.172 388.82 154.867 387.914 154.867ZM403.477 164.746C402.633 165.738 401.395 166.234 399.762 166.234C398.41 166.234 397.379 165.844 396.668 165.062C395.965 164.273 395.609 163.109 395.602 161.57V153.32H397.77V161.512C397.77 163.434 398.551 164.395 400.113 164.395C401.77 164.395 402.871 163.777 403.418 162.543V153.32H405.586V166H403.523L403.477 164.746ZM415.02 155.266C414.691 155.211 414.336 155.184 413.953 155.184C412.531 155.184 411.566 155.789 411.059 157V166H408.891V153.32H411L411.035 154.785C411.746 153.652 412.754 153.086 414.059 153.086C414.48 153.086 414.801 153.141 415.02 153.25V155.266Z" fill="#EEC660"/>
<path d="M73.7123 102.172L82.6777 91.8304L91.643 102.172L82.6777 112.513L73.7123 102.172Z" fill="#EEC660"/>
<path d="M41 138.994L70.916 104.487L78.2532 112.95L48.3373 147.457L41 138.994Z" fill="#EEC660"/>
<path d="M115.747 166.43L145.663 131.923L153 140.386L123.084 174.893L115.747 166.43Z" fill="#EEC660"/>
<path d="M89.6178 142.466L122.988 103.974L130.326 112.438L96.9551 150.929L89.6178 142.466Z" fill="#EEC660"/>
<path d="M48.3919 131.923L78.3078 166.43L70.9706 174.893L41.0546 140.386L48.3919 131.923Z" fill="#EEC660"/>
<path d="M71.2886 104.487L101.205 138.994L93.8673 147.457L63.9513 112.95L71.2886 104.487Z" fill="#EEC660"/>
<path d="M123.084 104.487L153 138.994L145.663 147.457L115.747 112.95L123.084 104.487Z" fill="#EEC660"/>
<path d="M70.8425 162.949H123.083V175H70.8425V162.949Z" fill="#EEC660"/>
<path d="M66.3966 138.994L96.3125 104.487L103.65 112.95L73.7339 147.457L66.3966 138.994Z" fill="#EEC660"/>
<path d="M97.5198 103.974L127.436 138.481L120.098 146.944L90.1825 112.438L97.5198 103.974Z" fill="#EEC660"/>
<path d="M128.103 139.873L98.1866 174.38L90.8494 165.917L120.765 131.41L128.103 139.873Z" fill="#EEC660"/>
<path d="M96.9794 174.893L67.0635 140.386L74.4008 131.923L104.317 166.43L96.9794 174.893Z" fill="#EEC660"/>
<path d="M103.076 102.008L112.041 91.6667L121.006 102.008L112.041 112.349L103.076 102.008Z" fill="#EEC660"/>
<path d="M85.7732 88.1193L97.1471 75L109.115 88.8038L97.7406 101.923L85.7732 88.1193Z" fill="#EEC660"/>
</svg>
