<svg width="20" height="20" viewBox="0 0 20 20" fill="none" xmlns="http://www.w3.org/2000/svg">
<defs>
<linearGradient id="paint0_linear_183:5244" x1="0.625048" y1="9.99887" x2="19.375" y2="9.99887" gradientUnits="userSpaceOnUse">
<stop stop-color="#F6921E"/>
<stop offset="1" stop-color="#F86312"/>
</linearGradient>
</defs>
<path d="M10 0.625C8.1458 0.625 6.33324 1.17483 4.79153 2.20497C3.24982 3.23511 2.04821 4.69929 1.33863 6.41234C0.629062 8.1254 0.443406 10.0104 0.805142 11.829C1.16688 13.6475 2.05976 15.318 3.37088 16.6291C4.682 17.9402 6.35246 18.8331 8.17103 19.1949C9.98961 19.5566 11.8746 19.3709 13.5877 18.6614C15.3007 17.9518 16.7649 16.7502 17.795 15.2085C18.8252 13.6668 19.375 11.8542 19.375 10C19.3722 7.51446 18.3836 5.13152 16.626 3.37398C14.8685 1.61644 12.4855 0.627812 10 0.625ZM10 16.875C9.81458 16.875 9.63333 16.82 9.47916 16.717C9.32499 16.614 9.20483 16.4676 9.13387 16.2963C9.06291 16.125 9.04434 15.9365 9.08052 15.7546C9.11669 15.5727 9.20598 15.4057 9.33709 15.2746C9.4682 15.1435 9.63525 15.0542 9.81711 15.018C9.99897 14.9818 10.1875 15.0004 10.3588 15.0714C10.5301 15.1423 10.6765 15.2625 10.7795 15.4167C10.8825 15.5708 10.9375 15.7521 10.9375 15.9375C10.9375 16.1861 10.8387 16.4246 10.6629 16.6004C10.4871 16.7762 10.2486 16.875 10 16.875ZM11.1106 11.0962C10.9741 11.1303 10.8526 11.2083 10.7648 11.3182C10.677 11.4282 10.6279 11.564 10.625 11.7047V13.125C10.625 13.2908 10.5592 13.4497 10.4419 13.5669C10.3247 13.6842 10.1658 13.75 10 13.75C9.83424 13.75 9.67527 13.6842 9.55806 13.5669C9.44085 13.4497 9.375 13.2908 9.375 13.125V11.7047C9.376 11.2915 9.51314 10.8902 9.76521 10.5628C10.0173 10.2355 10.3702 10.0003 10.7694 9.89375C11.2725 9.75066 11.7257 9.4701 12.0782 9.0836C12.4306 8.69709 12.6683 8.21996 12.7645 7.70581C12.8607 7.19166 12.8116 6.66087 12.6228 6.17308C12.4339 5.68529 12.1128 5.25983 11.6955 4.94451C11.2781 4.62919 10.7811 4.4365 10.2603 4.3881C9.73944 4.33969 9.21543 4.43749 8.74713 4.6705C8.27882 4.90352 7.88477 5.26251 7.60926 5.70714C7.33375 6.15177 7.1877 6.66443 7.1875 7.1875C7.1875 7.35326 7.12166 7.51223 7.00445 7.62944C6.88724 7.74665 6.72827 7.8125 6.5625 7.8125C6.39674 7.8125 6.23777 7.74665 6.12056 7.62944C6.00335 7.51223 5.9375 7.35326 5.9375 7.1875C5.93769 6.4319 6.14861 5.69133 6.54654 5.049C6.94448 4.40668 7.51366 3.88807 8.19014 3.55144C8.86661 3.21482 9.62356 3.07352 10.3759 3.14344C11.1283 3.21336 11.8462 3.49171 12.4491 3.94723C13.0519 4.40274 13.5158 5.01736 13.7886 5.72201C14.0613 6.42666 14.1322 7.19341 13.9931 7.93611C13.8541 8.6788 13.5107 9.368 13.0015 9.92625C12.4922 10.4845 11.8374 10.8897 11.1106 11.0962Z" fill="url(#paint0_linear_183:5244)"/>

</svg>
