<svg width="20" height="20" viewBox="0 0 20 20" fill="none" xmlns="http://www.w3.org/2000/svg">
<defs>
<linearGradient id="paint0_linear_183:5261" x1="6.10561" y1="3.11475" x2="13.8852" y2="3.11475" gradientUnits="userSpaceOnUse">
<stop stop-color="#F6921E"/>
<stop offset="1" stop-color="#F86312"/>
</linearGradient>
<linearGradient id="paint1_linear_183:5261" x1="2.00004" y1="10.9362" x2="18" y2="10.9362" gradientUnits="userSpaceOnUse">
<stop stop-color="#F6921E"/>
<stop offset="1" stop-color="#F86312"/>
</linearGradient>
</defs>
<path d="M12.1584 1H7.84152C6.8863 1 6.10559 1.756 6.10559 2.692V3.538C6.10559 4.474 6.87712 5.23 7.83234 5.23H12.1584C13.1136 5.23 13.8851 4.474 13.8851 3.538V2.692C13.8943 1.756 13.1136 1 12.1584 1Z" fill="url(#paint0_linear_183:5261)"/>
<path d="M14.8128 3.538C14.8128 4.969 13.6188 6.139 12.1584 6.139H7.84155C6.38117 6.139 5.18714 4.969 5.18714 3.538C5.18714 3.034 4.63605 2.719 4.17681 2.953C2.88174 3.628 2 4.969 2 6.508V14.977C2 17.191 3.84615 19 6.10562 19H13.8944C16.1538 19 18 17.191 18 14.977V6.508C18 4.969 17.1182 3.628 15.8232 2.953C15.3639 2.719 14.8128 3.034 14.8128 3.538ZM10.349 14.455H6.32606C5.94948 14.455 5.63719 14.149 5.63719 13.78C5.63719 13.411 5.94948 13.105 6.32606 13.105H10.349C10.7256 13.105 11.0379 13.411 11.0379 13.78C11.0379 14.149 10.7256 14.455 10.349 14.455ZM12.7554 10.855H6.32606C5.94948 10.855 5.63719 10.549 5.63719 10.18C5.63719 9.811 5.94948 9.505 6.32606 9.505H12.7554C13.132 9.505 13.4443 9.811 13.4443 10.18C13.4443 10.549 13.132 10.855 12.7554 10.855Z" fill="url(#paint1_linear_183:5261)"/>

</svg>
