<svg width="18" height="18" viewBox="0 0 18 18" fill="none" xmlns="http://www.w3.org/2000/svg">
<defs>
<linearGradient id="paint0_linear_183:5186" x1="0.562543" y1="9.05046" x2="17.4375" y2="9.05046" gradientUnits="userSpaceOnUse">
<stop stop-color="#F6921E"/>
<stop offset="1" stop-color="#F86312"/>
</linearGradient>
</defs>
<path d="M17.4375 6.22871V15.5625C17.437 16.0596 17.2393 16.5362 16.8878 16.8877C16.5363 17.2393 16.0596 17.437 15.5625 17.4375H12.4375C12.106 17.4375 11.788 17.3058 11.5536 17.0713C11.3192 16.8369 11.1875 16.519 11.1875 16.1875V12.75C11.1875 12.5842 11.1217 12.4252 11.0044 12.308C10.8872 12.1908 10.7283 12.125 10.5625 12.125H7.4375C7.27174 12.125 7.11277 12.1908 6.99556 12.308C6.87835 12.4252 6.8125 12.5842 6.8125 12.75V16.1875C6.8125 16.519 6.6808 16.8369 6.44638 17.0713C6.21196 17.3058 5.89402 17.4375 5.5625 17.4375H2.4375C1.94037 17.437 1.46375 17.2393 1.11222 16.8877C0.7607 16.5362 0.562996 16.0596 0.5625 15.5625V6.22871C0.562968 6.01286 0.619058 5.80078 0.725359 5.61292C0.83166 5.42506 0.984583 5.26776 1.16937 5.15621L8.35687 0.843712C8.55118 0.727089 8.77354 0.665482 9.00016 0.665482C9.22678 0.665482 9.44913 0.727089 9.64344 0.843712L16.8309 5.15621C17.0157 5.2678 17.1685 5.42511 17.2748 5.61297C17.381 5.80083 17.4371 6.01289 17.4375 6.22871Z" fill="url(#paint0_linear_183:5186)"/>

</svg>
