<svg width="65" height="23" viewBox="0 0 65 23" fill="none" xmlns="http://www.w3.org/2000/svg">
<path d="M0.569281 18C0.393281 18 0.249281 17.936 0.137281 17.808C0.0412812 17.68 0.00928124 17.528 0.0412812 17.352L3.35328 1.848C3.38528 1.672 3.47328 1.52 3.61728 1.392C3.77728 1.264 3.94528 1.2 4.12128 1.2H16.4333C16.6093 1.2 16.7533 1.264 16.8653 1.392C16.9453 1.488 16.9853 1.6 16.9853 1.728C16.9853 1.76 16.9773 1.8 16.9613 1.848L16.2413 5.232C16.1933 5.408 16.0893 5.56 15.9293 5.688C15.7853 5.816 15.6253 5.88 15.4493 5.88H8.24928L7.91328 7.392H14.5853C14.7613 7.392 14.9053 7.456 15.0173 7.584C15.0973 7.68 15.1373 7.792 15.1373 7.92C15.1373 7.952 15.1293 7.992 15.1133 8.04L14.4413 11.16C14.4093 11.336 14.3133 11.488 14.1533 11.616C13.9933 11.744 13.8253 11.808 13.6493 11.808H6.97728L6.66528 13.32H14.0573C14.2333 13.32 14.3693 13.384 14.4653 13.512C14.5453 13.608 14.5853 13.72 14.5853 13.848C14.5853 13.88 14.5773 13.92 14.5613 13.968L13.8413 17.352C13.8093 17.528 13.7133 17.68 13.5533 17.808C13.4093 17.936 13.2493 18 13.0733 18H0.569281ZM16.3137 18C16.1377 18 15.9937 17.936 15.8817 17.808C15.8017 17.712 15.7617 17.6 15.7617 17.472C15.7617 17.44 15.7697 17.4 15.7857 17.352L19.1457 1.608C19.1777 1.432 19.2657 1.28 19.4097 1.152C19.5697 1.024 19.7377 0.959999 19.9137 0.959999H24.5937C24.7697 0.959999 24.9137 1.024 25.0257 1.152C25.1057 1.248 25.1457 1.36 25.1457 1.488C25.1457 1.52 25.1377 1.56 25.1217 1.608L24.0177 6.768C25.1377 5.776 26.3777 5.28 27.7377 5.28C28.9377 5.28 29.9057 5.608 30.6417 6.264C31.3937 6.904 31.7697 7.864 31.7697 9.144C31.7697 9.656 31.7137 10.184 31.6017 10.728L30.1857 17.352C30.1537 17.528 30.0577 17.68 29.8977 17.808C29.7537 17.936 29.5937 18 29.4177 18H24.7137C24.5377 18 24.3937 17.936 24.2817 17.808C24.1857 17.68 24.1537 17.528 24.1857 17.352L25.5537 10.896C25.5857 10.672 25.6017 10.528 25.6017 10.464C25.6017 9.872 25.2817 9.576 24.6417 9.576C24.2577 9.576 23.9297 9.688 23.6577 9.912C23.4017 10.136 23.2257 10.464 23.1297 10.896L21.7617 17.352C21.7297 17.528 21.6337 17.68 21.4737 17.808C21.3297 17.936 21.1697 18 20.9937 18H16.3137ZM37.0393 18.24C35.7433 18.24 34.7033 17.912 33.9193 17.256C33.1513 16.584 32.7673 15.544 32.7673 14.136C32.7673 13.608 32.8073 13.128 32.8873 12.696C33.0313 12.008 33.1673 11.376 33.2953 10.8C33.7593 8.96 34.5273 7.584 35.5993 6.672C36.6873 5.744 38.0073 5.28 39.5593 5.28C40.4073 5.28 41.0793 5.384 41.5753 5.592C42.0873 5.8 42.5193 6.096 42.8713 6.48L42.9433 6.168C42.9753 5.992 43.0633 5.84 43.2073 5.712C43.3673 5.584 43.5353 5.52 43.7113 5.52H47.7673C47.9433 5.52 48.0873 5.584 48.1993 5.712C48.2793 5.808 48.3193 5.92 48.3193 6.048C48.3193 6.08 48.3113 6.12 48.2953 6.168L45.9193 17.352C45.8873 17.528 45.7913 17.68 45.6313 17.808C45.4873 17.936 45.3273 18 45.1513 18H41.0713C40.8953 18 40.7513 17.936 40.6393 17.808C40.5433 17.68 40.5113 17.528 40.5433 17.352L40.6633 16.8C40.1353 17.28 39.5913 17.64 39.0313 17.88C38.4713 18.12 37.8073 18.24 37.0393 18.24ZM39.7033 13.944C40.1193 13.944 40.4393 13.832 40.6633 13.608C40.9033 13.368 41.0873 13.016 41.2153 12.552C41.3753 11.928 41.4953 11.336 41.5753 10.776C41.5913 10.696 41.5993 10.584 41.5993 10.44C41.5993 9.864 41.2793 9.576 40.6393 9.576C40.2233 9.576 39.9033 9.688 39.6793 9.912C39.4713 10.136 39.2953 10.488 39.1513 10.968C38.9753 11.56 38.8633 12.088 38.8153 12.552C38.7993 12.664 38.7913 12.816 38.7913 13.008C38.7913 13.328 38.8553 13.568 38.9833 13.728C39.1273 13.872 39.3673 13.944 39.7033 13.944ZM49.4511 22.56C49.3231 22.56 49.2191 22.52 49.1391 22.44C49.0591 22.36 49.0191 22.256 49.0191 22.128C49.0191 22 49.0511 21.896 49.1151 21.816L52.0191 17.208L49.6911 6.264C49.6591 6.072 49.7071 5.904 49.8351 5.76C49.9791 5.6 50.1791 5.52 50.4351 5.52H54.2511C54.6191 5.52 54.8351 5.712 54.8991 6.096L55.8351 11.568L59.1471 6.096C59.3711 5.712 59.6831 5.52 60.0831 5.52H64.3311C64.6191 5.52 64.7631 5.664 64.7631 5.952C64.7631 6.064 64.7391 6.168 64.6911 6.264L54.5871 21.984C54.3631 22.368 54.0431 22.56 53.6271 22.56H49.4511Z" fill="#161513"/>
</svg>
