<svg width="25" height="24" viewBox="0 0 25 24" fill="none" xmlns="http://www.w3.org/2000/svg">
<defs>
<linearGradient id="paint0_linear" x1="2.0707" y1="6.99931" x2="22.8804" y2="6.99931" gradientUnits="userSpaceOnUse">
<stop stop-color="#F6921E"/>
<stop offset="1" stop-color="#F86312"/>
</linearGradient>
<linearGradient id="paint1_linear" x1="9.62001" y1="19.502" x2="15.3701" y2="19.502" gradientUnits="userSpaceOnUse">
<stop stop-color="#F6921E"/>
<stop offset="1" stop-color="#F86312"/>
</linearGradient>
<linearGradient id="paint2_linear" x1="3.13005" y1="17.4794" x2="21.87" y2="17.4794" gradientUnits="userSpaceOnUse">
<stop stop-color="#F6921E"/>
<stop offset="1" stop-color="#F86312"/>
</linearGradient>
</defs>
<path d="M22.86 8.27L22.57 5.5C22.15 2.48 20.78 1.25 17.85 1.25H15.49H14.01H10.97H9.48999H7.08999C4.14999 1.25 2.78999 2.48 2.35999 5.53L2.08999 8.28C1.98999 9.35 2.27999 10.39 2.90999 11.2C3.66999 12.19 4.83999 12.75 6.13999 12.75C7.39999 12.75 8.60999 12.12 9.36999 11.11C10.05 12.12 11.21 12.75 12.5 12.75C13.79 12.75 14.92 12.15 15.61 11.15C16.38 12.14 17.57 12.75 18.81 12.75C20.14 12.75 21.34 12.16 22.09 11.12C22.69 10.32 22.96 9.31 22.86 8.27Z" fill="url(#paint0_linear)"/>
<path d="M11.85 16.66C10.58 16.79 9.62 17.87 9.62 19.15V21.89C9.62 22.16 9.83999 22.38 10.11 22.38H14.88C15.15 22.38 15.37 22.16 15.37 21.89V19.5C15.38 17.41 14.15 16.42 11.85 16.66Z" fill="url(#paint1_linear)"/>
<path d="M21.87 14.4V17.38C21.87 20.14 19.63 22.38 16.87 22.38C16.6 22.38 16.38 22.16 16.38 21.89V19.5C16.38 18.22 15.99 17.22 15.23 16.54C14.56 15.93 13.65 15.63 12.52 15.63C12.27 15.63 12.02 15.64 11.75 15.67C9.97001 15.85 8.62 17.35 8.62 19.15V21.89C8.62 22.16 8.4 22.38 8.13 22.38C5.37 22.38 3.13 20.14 3.13 17.38V14.42C3.13 13.72 3.82 13.25 4.47 13.48C4.74 13.57 5.01 13.64 5.29 13.68C5.41 13.7 5.54 13.72 5.66 13.72C5.82 13.74 5.98 13.75 6.14 13.75C7.3 13.75 8.44 13.32 9.34 12.58C10.2 13.32 11.32 13.75 12.5 13.75C13.69 13.75 14.79 13.34 15.65 12.6C16.55 13.33 17.67 13.75 18.81 13.75C18.99 13.75 19.17 13.74 19.34 13.72C19.46 13.71 19.57 13.7 19.68 13.68C19.99 13.64 20.27 13.55 20.55 13.46C21.2 13.24 21.87 13.72 21.87 14.4Z" fill="url(#paint2_linear)"/>

</svg>
