<svg width="25" height="24" viewBox="0 0 25 24" fill="none" xmlns="http://www.w3.org/2000/svg">
<path d="M22.8599 8.27L22.5699 5.5C22.1499 2.48 20.7799 1.25 17.8499 1.25H15.4899H14.0099H10.9699H9.48989H7.08989C4.14989 1.25 2.78989 2.48 2.35989 5.53L2.08989 8.28C1.98989 9.35 2.27989 10.39 2.90989 11.2C3.66989 12.19 4.83989 12.75 6.13989 12.75C7.39989 12.75 8.60989 12.12 9.36989 11.11C10.0499 12.12 11.2099 12.75 12.4999 12.75C13.7899 12.75 14.9199 12.15 15.6099 11.15C16.3799 12.14 17.5699 12.75 18.8099 12.75C20.1399 12.75 21.3399 12.16 22.0899 11.12C22.6899 10.32 22.9599 9.31 22.8599 8.27Z" fill="#C2C2C2"/>
<path d="M11.8501 16.66C10.5801 16.79 9.62012 17.87 9.62012 19.15V21.89C9.62012 22.16 9.84012 22.38 10.1101 22.38H14.8801C15.1501 22.38 15.3701 22.16 15.3701 21.89V19.5C15.3801 17.41 14.1501 16.42 11.8501 16.66Z" fill="#C2C2C2"/>
<path d="M21.8699 14.4V17.38C21.8699 20.14 19.6299 22.38 16.8699 22.38C16.5999 22.38 16.3799 22.16 16.3799 21.89V19.5C16.3799 18.22 15.9899 17.22 15.2299 16.54C14.5599 15.93 13.6499 15.63 12.5199 15.63C12.2699 15.63 12.0199 15.64 11.7499 15.67C9.96988 15.85 8.61988 17.35 8.61988 19.15V21.89C8.61988 22.16 8.39988 22.38 8.12988 22.38C5.36988 22.38 3.12988 20.14 3.12988 17.38V14.42C3.12988 13.72 3.81988 13.25 4.46988 13.48C4.73988 13.57 5.00988 13.64 5.28988 13.68C5.40988 13.7 5.53988 13.72 5.65988 13.72C5.81988 13.74 5.97988 13.75 6.13988 13.75C7.29988 13.75 8.43988 13.32 9.33988 12.58C10.1999 13.32 11.3199 13.75 12.4999 13.75C13.6899 13.75 14.7899 13.34 15.6499 12.6C16.5499 13.33 17.6699 13.75 18.8099 13.75C18.9899 13.75 19.1699 13.74 19.3399 13.72C19.4599 13.71 19.5699 13.7 19.6799 13.68C19.9899 13.64 20.2699 13.55 20.5499 13.46C21.1999 13.24 21.8699 13.72 21.8699 14.4Z" fill="#C2C2C2"/>
</svg>
