<svg width="20" height="20" viewBox="0 0 20 20" fill="none" xmlns="http://www.w3.org/2000/svg">
<defs>
<linearGradient id="paint0_linear_183:5267" x1="9.99896" y1="18.3333" x2="9.99896" y2="1.67498" gradientUnits="userSpaceOnUse">
<stop stop-color="#F6921E"/>
<stop offset="1" stop-color="#F86312"/>
</linearGradient>
</defs>
<path d="M1.66663 6.50834L1.66663 13.4917C1.66663 16.525 3.47496 18.3333 6.50829 18.3333L13.4833 18.3333C16.525 18.3333 18.3333 16.525 18.3333 13.4917L18.3333 6.51668C18.3333 3.48334 16.525 1.67501 13.4916 1.67501L6.50829 1.67501C3.47496 1.66668 1.66663 3.47501 1.66663 6.50834ZM9.14996 12.9417C8.90829 12.7 8.90829 12.3 9.14996 12.0583L10.5833 10.625L5.42496 10.625C5.08329 10.625 4.79996 10.3417 4.79996 10C4.79996 9.65834 5.08329 9.37501 5.42496 9.37501L10.5833 9.37501L9.14996 7.94168C8.90829 7.70001 8.90829 7.30001 9.14996 7.05834C9.39163 6.81668 9.79163 6.81668 10.0333 7.05834L12.5333 9.55834C12.5916 9.61668 12.6333 9.68334 12.6666 9.75834C12.7 9.83334 12.7166 9.91668 12.7166 10C12.7166 10.0833 12.7 10.1583 12.6666 10.2417C12.6333 10.3167 12.5916 10.3833 12.5333 10.4417L10.0333 12.9417C9.79163 13.1833 9.39996 13.1833 9.14996 12.9417ZM14.35 4.80001C14.9083 6.47501 15.1916 8.23334 15.1916 10C15.1916 11.7667 14.9083 13.525 14.35 15.2C14.2416 15.525 13.8833 15.7 13.5583 15.5917C13.2333 15.4833 13.05 15.1333 13.1666 14.8C14.2 11.7 14.2 8.29168 13.1666 5.19168C13.0583 4.86668 13.2333 4.50834 13.5583 4.40001C13.8916 4.30001 14.2416 4.47501 14.35 4.80001Z" fill="url(#paint0_linear_183:5267)"/>

</svg>
