<svg width="18" height="18" viewBox="0 0 18 18" fill="none" xmlns="http://www.w3.org/2000/svg">
<defs>
<linearGradient id="paint0_linear_183:5226" x1="0.562543" y1="8.99898" x2="17.4375" y2="8.99898" gradientUnits="userSpaceOnUse">
<stop stop-color="#F6921E"/>
<stop offset="1" stop-color="#F86312"/>
</linearGradient>
</defs>
<path d="M6.96875 5.25V0.5625H11.0312V5.25C11.0312 5.29144 11.0148 5.33118 10.9855 5.36049C10.9562 5.38979 10.9164 5.40625 10.875 5.40625H7.125C7.08356 5.40625 7.04382 5.38979 7.01451 5.36049C6.98521 5.33118 6.96875 5.29144 6.96875 5.25ZM17.4375 2.4375V15.5625C17.437 16.0596 17.2393 16.5363 16.8878 16.8878C16.5363 17.2393 16.0596 17.437 15.5625 17.4375H2.4375C1.94037 17.437 1.46375 17.2393 1.11222 16.8878C0.7607 16.5363 0.562996 16.0596 0.5625 15.5625V2.4375C0.562996 1.94037 0.7607 1.46375 1.11222 1.11222C1.46375 0.7607 1.94037 0.562996 2.4375 0.5625H6.03125V5.25C6.03125 5.54008 6.14648 5.81828 6.3516 6.0234C6.55672 6.22852 6.83492 6.34375 7.125 6.34375H10.875C11.1651 6.34375 11.4433 6.22852 11.6484 6.0234C11.8535 5.81828 11.9688 5.54008 11.9688 5.25V0.5625H15.5625C16.0596 0.562996 16.5363 0.7607 16.8878 1.11222C17.2393 1.46375 17.437 1.94037 17.4375 2.4375ZM6.96875 14.9375C6.96875 14.8132 6.91936 14.694 6.83146 14.606C6.74355 14.5181 6.62432 14.4688 6.5 14.4688H3.0625C2.93818 14.4688 2.81895 14.5181 2.73104 14.606C2.64314 14.694 2.59375 14.8132 2.59375 14.9375C2.59375 15.0618 2.64314 15.181 2.73104 15.269C2.81895 15.3569 2.93818 15.4062 3.0625 15.4062H6.5C6.62432 15.4062 6.74355 15.3569 6.83146 15.269C6.91936 15.181 6.96875 15.0618 6.96875 14.9375ZM6.96875 12.4375C6.96875 12.3132 6.91936 12.194 6.83146 12.106C6.74355 12.0181 6.62432 11.9688 6.5 11.9688H3.0625C2.93818 11.9688 2.81895 12.0181 2.73104 12.106C2.64314 12.194 2.59375 12.3132 2.59375 12.4375C2.59375 12.5618 2.64314 12.681 2.73104 12.769C2.81895 12.8569 2.93818 12.9062 3.0625 12.9062H6.5C6.62432 12.9062 6.74355 12.8569 6.83146 12.769C6.91936 12.681 6.96875 12.5618 6.96875 12.4375ZM15.5625 12.4375C15.5625 12.2717 15.4967 12.1128 15.3794 11.9956C15.2622 11.8783 15.1033 11.8125 14.9375 11.8125H12.4375C12.2717 11.8125 12.1128 11.8783 11.9956 11.9956C11.8783 12.1128 11.8125 12.2717 11.8125 12.4375V14.9375C11.8125 15.1033 11.8783 15.2622 11.9956 15.3794C12.1128 15.4967 12.2717 15.5625 12.4375 15.5625H14.9375C15.1033 15.5625 15.2622 15.4967 15.3794 15.3794C15.4967 15.2622 15.5625 15.1033 15.5625 14.9375V12.4375Z" fill="url(#paint0_linear_183:5226)"/>

</svg>
