<svg width="20" height="18" viewBox="0 0 20 18" fill="none" xmlns="http://www.w3.org/2000/svg">
<defs>
<linearGradient id="paint0_linear_183:5200" x1="5.15122e-05" y1="8.99892" x2="20" y2="8.99892" gradientUnits="userSpaceOnUse">
<stop stop-color="#F6921E"/>
<stop offset="1" stop-color="#F86312"/>
</linearGradient>
</defs>
<path d="M18.5185 5.86965H15.9311L12.0789 0.31982C11.9627 0.152423 11.7883 0.0406535 11.5941 0.00909865C11.3999 -0.0224562 11.2018 0.0287889 11.0433 0.15156C10.8849 0.274331 10.7791 0.458572 10.7492 0.663752C10.7194 0.868932 10.7679 1.07824 10.8841 1.24564L14.0937 5.86965H5.9063L9.11593 1.24564C9.23213 1.07824 9.28063 0.868932 9.25077 0.663752C9.2209 0.458572 9.11511 0.274331 8.95667 0.15156C8.79822 0.0287889 8.60011 -0.0224562 8.4059 0.00909865C8.2117 0.0406535 8.03731 0.152423 7.92111 0.31982L4.06889 5.86965H1.48148C1.08857 5.86965 0.711747 6.03456 0.433916 6.32809C0.156084 6.62162 0 7.01974 0 7.43486V8.21746C0 8.63258 0.156084 9.03069 0.433916 9.32423C0.711747 9.61776 1.08857 9.78267 1.48148 9.78267H1.58L2.41852 15.984C2.49616 16.5425 2.76082 17.0531 3.16443 17.423C3.56804 17.7929 4.08384 17.9977 4.61815 18H15.3819C15.9161 17.9977 16.4319 17.793 16.8355 17.4232C17.2391 17.0533 17.5038 16.5429 17.5815 15.9844L18.42 9.78267H18.5185C18.9114 9.78267 19.2883 9.61776 19.5661 9.32423C19.8439 9.03069 20 8.63258 20 8.21746V7.43486C20 7.01974 19.8439 6.62162 19.5661 6.32809C19.2883 6.03456 18.9114 5.86965 18.5185 5.86965ZM12.5926 12.9131H10.7407V14.8696C10.7407 15.0771 10.6627 15.2762 10.5238 15.423C10.3849 15.5697 10.1965 15.6522 10 15.6522C9.80354 15.6522 9.61513 15.5697 9.47622 15.423C9.3373 15.2762 9.25926 15.0771 9.25926 14.8696V12.9131H7.40741C7.21095 12.9131 7.02254 12.8306 6.88362 12.6839C6.74471 12.5371 6.66667 12.338 6.66667 12.1305C6.66667 11.9229 6.74471 11.7239 6.88362 11.5771C7.02254 11.4303 7.21095 11.3479 7.40741 11.3479H9.25926V9.39137C9.25926 9.18381 9.3373 8.98475 9.47622 8.83798C9.61513 8.69121 9.80354 8.60876 10 8.60876C10.1965 8.60876 10.3849 8.69121 10.5238 8.83798C10.6627 8.98475 10.7407 9.18381 10.7407 9.39137V11.3479H12.5926C12.789 11.3479 12.9775 11.4303 13.1164 11.5771C13.2553 11.7239 13.3333 11.9229 13.3333 12.1305C13.3333 12.338 13.2553 12.5371 13.1164 12.6839C12.9775 12.8306 12.789 12.9131 12.5926 12.9131Z" fill="url(#paint0_linear_183:5200)"/>

</svg>
