<svg width="20" height="20" viewBox="0 0 20 20" fill="none" xmlns="http://www.w3.org/2000/svg">
<path d="M17.5667 7.15003V12.85C17.5667 13.7833 17.0667 14.65 16.2584 15.125L11.3084 17.9834C10.5 18.45 9.50005 18.45 8.68338 17.9834L3.73338 15.125C2.92505 14.6584 2.42505 13.7917 2.42505 12.85V7.15003C2.42505 6.2167 2.92505 5.35 3.73338 4.875L8.68338 2.01667C9.49172 1.55001 10.4917 1.55001 11.3084 2.01667L16.2584 4.875C17.0667 5.35 17.5667 6.20837 17.5667 7.15003Z" stroke="#DBDBDB" stroke-width="1.5" stroke-linecap="round" stroke-linejoin="round"/>
<path d="M10 9.16667C11.0724 9.16667 11.9417 8.29734 11.9417 7.22499C11.9417 6.15263 11.0724 5.28336 10 5.28336C8.92766 5.28336 8.05835 6.15263 8.05835 7.22499C8.05835 8.29734 8.92766 9.16667 10 9.16667Z" stroke="#DBDBDB" stroke-width="1.5" stroke-linecap="round" stroke-linejoin="round"/>
<path d="M13.3334 13.8833C13.3334 12.3833 11.8417 11.1667 10.0001 11.1667C8.15841 11.1667 6.66675 12.3833 6.66675 13.8833" stroke="#DBDBDB" stroke-width="1.5" stroke-linecap="round" stroke-linejoin="round"/>
</svg>
