<svg width="18" height="18" viewBox="0 0 18 18" fill="none" xmlns="http://www.w3.org/2000/svg">
<defs>
<linearGradient id="paint0_linear_183:5224" x1="4.6361e-05" y1="8.99892" x2="18" y2="8.99892" gradientUnits="userSpaceOnUse">
<stop stop-color="#F6921E"/>
<stop offset="1" stop-color="#F86312"/>
</linearGradient>
</defs>
<path d="M18 9C18 10.78 17.4722 12.5201 16.4832 14.0001C15.4943 15.4802 14.0887 16.6337 12.4442 17.3149C10.7996 17.9961 8.99002 18.1743 7.24419 17.8271C5.49836 17.4798 3.89471 16.6226 2.63604 15.364C1.37737 14.1053 0.520203 12.5016 0.172936 10.7558C-0.17433 9.00998 0.00389955 7.20038 0.685088 5.55585C1.36628 3.91131 2.51983 2.50571 3.99987 1.51677C5.47991 0.527841 7.21997 0 9 0C11.3861 0.00276614 13.6737 0.951866 15.3609 2.63909C17.0481 4.32632 17.9972 6.6139 18 9ZM11.7102 4.64661C11.1344 4.62361 10.5656 4.77829 10.0807 5.08965C9.5959 5.401 9.21859 5.85397 9 6.3871C8.78164 5.8537 8.40443 5.40042 7.91959 5.08879C7.43474 4.77716 6.86575 4.62228 6.28984 4.64516C5.57216 4.68746 4.89426 4.98892 4.38215 5.4935C3.87004 5.99808 3.55857 6.67144 3.50565 7.38842C3.1622 10.9376 6.97674 13.4129 8.44113 14.2258C8.61214 14.3206 8.80447 14.3704 9 14.3704C9.19554 14.3704 9.38786 14.3206 9.55887 14.2258C11.0233 13.4129 14.8378 10.9379 14.4944 7.39016C14.4415 6.67313 14.1301 5.9997 13.6179 5.49506C13.1058 4.99042 12.4279 4.68892 11.7102 4.64661Z" fill="url(#paint0_linear_183:5224)"/>

</svg>
